<?xml version="1.0" standalone="no"?>
<!DOCTYPE svg PUBLIC "-//W3C//DTD SVG 20010904//EN"
 "http://www.w3.org/TR/2001/REC-SVG-20010904/DTD/svg10.dtd">
<svg version="1.0" xmlns="http://www.w3.org/2000/svg"
 width="596.000000pt" height="128.000000pt" viewBox="0 0 596.000000 128.000000"
 preserveAspectRatio="xMidYMid meet">

<g transform="translate(0.000000,128.000000) scale(0.100000,-0.100000)"
fill="#000000" stroke="none">
<path d="M2355 1205 c-5 -2 -27 -6 -48 -10 -39 -6 -107 -59 -129 -99 -7 -12
-14 -52 -17 -91 l-6 -70 -57 -3 -58 -3 0 -54 0 -55 60 0 60 0 0 -240 0 -240
60 0 60 0 0 240 0 240 90 0 90 0 0 55 0 55 -91 0 -92 0 5 51 c3 28 14 62 25
77 18 24 27 27 74 26 30 0 63 -4 74 -8 17 -6 24 0 43 39 l22 46 -42 18 c-44
19 -105 32 -123 26z"/>
<path d="M735 1192 c-55 -11 -76 -91 -35 -132 62 -62 162 21 120 100 -11 21
-56 38 -85 32z"/>
<path d="M4520 1187 c-51 -26 -61 -93 -18 -129 48 -41 128 -2 128 62 0 28 -29
70 -49 70 -5 0 -15 2 -23 5 -7 3 -24 -1 -38 -8z"/>
<path d="M5330 765 l0 -425 64 0 65 0 3 193 3 194 29 37 c49 65 136 85 206 48
63 -33 70 -62 70 -279 l0 -193 66 0 65 0 -3 213 c-3 210 -3 212 -32 270 -21
44 -40 66 -73 87 -89 57 -221 49 -294 -18 l-39 -34 0 166 0 166 -65 0 -65 0 0
-425z"/>
<path d="M1048 1103 c-28 -4 -28 -5 -28 -84 l0 -79 -55 0 -55 0 0 -55 0 -55
55 0 55 0 0 -150 c0 -189 11 -243 59 -292 57 -56 155 -73 243 -39 l27 10 -16
49 -16 49 -62 -5 c-58 -4 -63 -3 -83 23 -21 26 -22 39 -22 191 l0 164 91 0 90
0 -3 53 -3 52 -87 3 -88 3 0 84 0 85 -37 -1 c-21 -1 -50 -4 -65 -6z"/>
<path d="M4900 946 c-114 -24 -170 -81 -170 -171 0 -102 68 -155 231 -181 112
-18 144 -36 144 -84 0 -53 -39 -75 -128 -74 -78 1 -126 17 -175 59 l-30 25
-31 -42 c-17 -23 -31 -45 -31 -49 0 -12 68 -59 118 -82 70 -32 228 -32 294 1
110 54 147 171 84 265 -27 40 -103 71 -210 86 -96 14 -128 28 -140 64 -9 24
-6 31 17 55 25 25 34 27 105 27 64 0 84 -4 120 -25 l43 -24 34 39 c18 22 31
43 28 48 -10 17 -103 56 -158 66 -69 13 -74 13 -145 -3z"/>
<path d="M253 933 c-61 -21 -136 -92 -163 -155 -34 -78 -33 -203 2 -278 52
-114 149 -174 283 -174 85 0 129 14 198 61 l38 26 -42 43 -42 43 -42 -25 c-31
-18 -56 -24 -98 -24 -69 0 -103 12 -145 53 -91 88 -56 272 61 316 52 20 140
14 180 -13 l35 -24 42 43 42 43 -44 29 c-23 17 -58 35 -77 41 -47 16 -177 14
-228 -5z"/>
<path d="M3475 934 c-16 -8 -42 -27 -57 -42 l-28 -26 0 37 0 37 -60 0 -60 0 0
-300 0 -300 65 0 65 0 0 193 c0 175 2 195 20 225 38 61 133 88 207 57 19 -8
37 -15 39 -15 4 0 54 97 54 105 0 3 -19 15 -42 25 -54 24 -160 27 -203 4z"/>
<path d="M4030 941 c-41 -13 -84 -37 -104 -60 -23 -25 -36 -13 -36 32 0 26 -1
27 -60 27 l-60 0 0 -300 0 -300 65 0 65 0 0 178 c0 164 2 181 23 222 31 63 76
90 147 90 67 0 113 -26 141 -80 17 -30 19 -59 19 -222 l0 -188 66 0 66 0 -4
208 c-3 193 -5 210 -26 254 -55 112 -188 173 -302 139z"/>
<path d="M690 640 l0 -300 65 0 65 0 0 300 0 300 -65 0 -65 0 0 -300z"/>
<path d="M1370 933 c0 -4 52 -137 116 -296 l117 -288 -48 -112 c-26 -61 -54
-127 -62 -145 l-14 -33 71 3 71 3 53 125 c30 69 113 262 185 429 72 168 131
308 131 313 0 4 -29 8 -66 8 l-65 0 -26 -57 c-14 -32 -56 -133 -93 -226 l-67
-167 -16 42 c-8 24 -44 124 -80 223 l-65 180 -71 3 c-39 2 -71 -1 -71 -5z"/>
<path d="M2550 747 c0 -141 4 -207 15 -243 51 -170 263 -229 407 -114 l37 30
3 -38 3 -37 58 -3 57 -3 0 301 0 300 -59 0 -59 0 -4 -182 c-4 -204 -9 -220
-74 -278 -35 -31 -40 -32 -105 -28 -55 3 -73 8 -94 28 -55 51 -59 70 -63 273
l-4 187 -59 0 -59 0 0 -193z"/>
<path d="M4490 640 l0 -300 60 0 60 0 0 300 0 300 -60 0 -60 0 0 -300z"/>
</g>
</svg>
